# xmcd CD database file
#
# Track frame offsets:
#	150
#	14175
#	32475
#
# Disc length: 617 seconds
#
# Revision: 1
# Processed by: cddbd v1.5.1PL0 Copyright (c) Steve Scherf et al.
# Submitted via: freeDBTagger 0.5
#
DISCID=1e026703
DTITLE=五島良子 - OPEN UP
DYEAR=1999
DGENRE=blues
TTITLE0=OPEN UP
TTITLE1=RONNIE
TTITLE2=OPEN UP -instrumental-
EXTD=YEAR: 1999
EXTT0=
EXTT1=
EXTT2=
PLAYORDER=
